HIERARCHY
ROOT Hips
{
  OFFSET 57.8838 95.319 338.509
  CHANNELS 6 Xposition Yposition Zposition Zrotation Xrotation Yrotation
  JOINT LeftUpLeg
  {
    OFFSET 8.64259 1.95398 -2.38835
    CHANNELS 3 Zrotation Xrotation Yrotation
    JOINT LeftLeg
    {
      OFFSET 43.7702 0 0
      CHANNELS 3 Zrotation Xrotation Yrotation
      JOINT LeftFoot
      {
        OFFSET 40.6238 0 0
        CHANNELS 3 Zrotation Xrotation Yrotation
        JOINT LeftToeBase
        {
          OFFSET 12.7242 0 0
          CHANNELS 3 Zrotation Xrotation Yrotation
          End Site
          {
            OFFSET 0 0 0
          }
        }
      }
    }
  }
  JOINT RightUpLeg
  {
    OFFSET -8.2249 1.95398 -2.59336
    CHANNELS 3 Zrotation Xrotation Yrotation
    JOINT RightLeg
    {
      OFFSET 43.5653 0 0
      CHANNELS 3 Zrotation Xrotation Yrotation
      JOINT RightFoot
      {
        OFFSET 40.6238 0 0
        CHANNELS 3 Zrotation Xrotation Yrotation
        JOINT RightToeBase
        {
          OFFSET 12.7242 0 0
          CHANNELS 3 Zrotation Xrotation Yrotation
          End Site
          {
            OFFSET 0 0 0
          }
        }
      }
    }
  }
  JOINT Spine
  {
    OFFSET 0.165834 0.87714 6.61349
    CHANNELS 3 Zrotation Xrotation Yrotation
    JOINT Spine1
    {
      OFFSET 7.38963 1.71661e-005 0
      CHANNELS 3 Zrotation Xrotation Yrotation
      JOINT Spine2
      {
        OFFSET 11.9445 1.14441e-005 0
        CHANNELS 3 Zrotation Xrotation Yrotation
        JOINT Spine3
        {
          OFFSET 14.7254 4.19617e-005 0
          CHANNELS 3 Zrotation Xrotation Yrotation
          JOINT Spine4
          {
            OFFSET 10.9679 0 0
            CHANNELS 3 Zrotation Xrotation Yrotation
            JOINT RightShoulder
            {
              OFFSET 2.46616 -1.6653 3.69651
              CHANNELS 3 Zrotation Xrotation Yrotation
              JOINT RightArm
              {
                OFFSET 13.0012 0 0
                CHANNELS 3 Zrotation Xrotation Yrotation
                JOINT RightForeArm
                {
                  OFFSET 28.7848 1.62311e-005 0
                  CHANNELS 3 Zrotation Xrotation Yrotation
                  JOINT RightHand
                  {
                    OFFSET 26.5688 1.62095e-005 0
                    CHANNELS 3 Zrotation Xrotation Yrotation
                    End Site
                    {
                      OFFSET 0 0 0
                    }
                  }
                }
              }
            }
            JOINT LeftShoulder
            {
              OFFSET 2.38034 -1.29275 -3.7523
              CHANNELS 3 Zrotation Xrotation Yrotation
              JOINT LeftArm
              {
                OFFSET 16.3182 6.07031e-005 0
                CHANNELS 3 Zrotation Xrotation Yrotation
                JOINT LeftForeArm
                {
                  OFFSET 27.0901 0 0
                  CHANNELS 3 Zrotation Xrotation Yrotation
                  JOINT LeftHand
                  {
                    OFFSET 24.5451 1.51738e-005 0
                    CHANNELS 3 Zrotation Xrotation Yrotation
                    End Site
                    {
                      OFFSET 0 0 0
                    }
                  }
                }
              }
            }
            JOINT Neck
            {
              OFFSET 5.0226 -0.0266342 0
              CHANNELS 3 Zrotation Xrotation Yrotation
              JOINT Head
              {
                OFFSET 6.69364 2.86102e-005 0
                CHANNELS 3 Zrotation Xrotation Yrotation
                End Site
                {
                  OFFSET 0 0 0
                }
              }
            }
          }
        }
      }
    }
  }
}
MOTION
Frames:	10
Frame Time:	0.0416667
-6.81339 97.0593 3.90186 120.223 -86.3516 120.258 -177.364 2.66158 89.3249 -14.3307 3.43503 1.44138 65.7688 3.7252 -0.641792 30.7473 0.769167 0.701956 173.09 2.04509 91.2949 -14.0858 -3.54971 -0.0338504 65.4388 -5.40311 0.790304 30.7678 -2.63769 0.871076 -0.114342 7.10488 -90.2415 12.6633 -0.342383 -0.442384 0.992298 -0.361515 -0.426893 -21.5424 -0.193599 -0.524824 -1.52975 -0.193598 -0.524831 94.2741 -53.1135 -93.7809 20.4275 -21.6216 -22.2293 -0.562759 -9.05079 -20.0468 -11.6357 -0.337041 -1.87616 -82.4006 -58.704 90.8502 -39.5502 -16.5121 -35.4589 1.28604 72.522 0.00630648 3.48209 -0.304287 -13.1843 16.7793 -0.256767 6.47536 -14.6817 -2.03992 -0.610178 
-6.83855 97.0517 3.90341 116.932 -85.7726 117.077 -177.492 2.62539 89.4429 -14.3805 4.37366 1.59393 65.5762 3.66544 -0.416491 31.2247 0.956792 0.960591 173.102 1.75076 91.4469 -13.7817 -2.87307 -0.0513014 65.4147 -5.33838 0.909513 30.8168 -2.7032 0.728404 -0.13001 7.15122 -90.2601 12.5704 -0.382215 -0.475163 0.899457 -0.402753 -0.457885 -21.6352 -0.221749 -0.568063 -1.62254 -0.221746 -0.568068 94.522 -52.9367 -93.4362 22.1496 -19.0763 -18.6464 0.682634 -9.95836 -16.9963 -11.326 -0.308496 -2.0991 -82.3517 -58.6932 90.9167 -40.2979 -22.3048 -34.023 6.17068 76.0385 0.00359688 3.91165 -0.30813 -13.7201 16.8359 -0.148714 6.38786 -14.4215 -1.96375 -0.148575 
-6.87787 97.076 3.96207 114.738 -85.6294 114.773 -177.475 2.57284 89.3899 -14.1932 4.86274 1.48959 65.4429 3.697 -0.213481 31.2124 0.941376 1.24164 173.025 1.88304 91.3254 -13.8792 -3.50101 0.0996436 65.0515 -5.20148 -0.0581719 31.0718 -3.03563 0.871408 -0.126378 7.23274 -90.2591 12.4074 -0.374228 -0.474655 0.73641 -0.394756 -0.457729 -21.7982 -0.214281 -0.56518 -1.78558 -0.214277 -0.565179 94.7914 -52.9196 -93.0367 23.8381 -15.9925 -13.8433 1.53083 -9.9983 -15.1384 -10.5666 -0.352589 -1.35567 -82.2684 -58.3966 91.0099 -38.3469 -26.178 -31.166 8.08112 78.0047 0.00377339 4.22659 -0.246066 -13.0923 17.5463 -0.0501026 6.65933 -14.8007 -1.96774 -0.329411 
-6.87053 97.041 3.96079 110.911 -85.6685 110.978 -177.553 3.06223 89.3857 -14.4642 4.8152 1.51047 65.5847 3.82312 -0.211934 31.1231 0.897232 1.42552 173.25 2.04757 91.5342 -13.6863 -2.77739 -0.133199 65.2692 -5.3121 0.373252 30.8864 -2.79027 1.10609 -0.133642 7.28099 -90.2718 12.3108 -0.39447 -0.49791 0.639831 -0.416011 -0.480073 -21.8948 -0.226597 -0.593443 -1.88211 -0.226603 -0.593446 95.0456 -53.0696 -92.6366 25.087 -13.557 -8.77784 2.27524 -10.2703 -12.8568 -9.9097 -0.172969 -3.28137 -81.8489 -58.0359 91.5654 -35.271 -29.4445 -26.0917 8.16551 81.0128 0.00494989 3.78182 -0.191057 -12.8207 17.6158 0.0159004 6.25031 -14.36 -1.85553 0.293903 
-6.7985 97.0437 3.97693 108.465 -85.7124 108.361 -177.729 3.02656 89.1415 -14.0479 4.35083 1.52982 65.5213 3.80346 -0.388015 30.9982 0.864576 0.909606 173.09 2.32272 91.2622 -13.8536 -2.80556 -0.0366293 65.4164 -5.39009 0.518264 30.7355 -2.59421 1.01772 -0.127268 7.34361 -90.2672 12.1857 -0.379428 -0.491334 0.51467 -0.400682 -0.47417 -22.0199 -0.214222 -0.582654 -2.00727 -0.214225 -0.582656 95.4911 -52.9928 -91.9813 26.2984 -11.185 -3.97422 2.67627 -9.68503 -12.4 -10.1046 -0.33408 -1.41517 -81.3898 -57.8879 92.192 -31.9097 -30.3631 -19.9148 6.61542 78.6415 0.00422296 1.98184 -0.120053 -13.4075 18.584 0.0465953 6.40074 -15.0276 -1.89652 0.0214872 
-6.79042 97.0504 4.0599 108.388 -85.6742 108.362 -177.581 2.86152 89.2718 -13.8447 4.71341 1.43759 65.4296 3.94004 -0.251396 31.2287 0.945413 1.32139 173.04 2.28126 91.2553 -13.8699 -3.27352 0.0969475 65.203 -5.1523 0.249435 30.9874 -2.92668 0.751956 -0.149325 7.40622 -90.2722 12.0603 -0.425346 -0.496319 0.389343 -0.446781 -0.477123 -22.1453 -0.256527 -0.601204 -2.13265 -0.256524 -0.601203 95.7602 -52.7918 -91.6031 27.3525 -10.261 -0.584004 3.17751 -9.4934 -11.2339 -9.90735 -0.349646 -1.12468 -80.775 -57.5361 93.0278 -29.4663 -29.839 -14.2583 4.16695 74.3322 0.00354172 1.17815 -0.0950845 -12.8943 18.665 0.00279722 6.13524 -14.4528 -1.90466 0.418212 
-6.81084 97.0411 4.0011 110.789 -85.8387 110.803 -177.511 3.0062 89.3207 -14.3376 4.87125 1.41245 65.4535 3.78864 -0.010975 31.2802 0.969112 1.25735 173.117 2.1618 91.3443 -13.8586 -2.95093 -0.0413815 65.4466 -5.32453 0.655922 30.7994 -2.6792 0.848454 -0.123115 7.43733 -90.2541 11.9983 -0.364606 -0.467307 0.327277 -0.384818 -0.450816 -22.2074 -0.20731 -0.555276 -2.19472 -0.207312 -0.555284 95.5858 -53.0192 -91.837 27.6855 -9.69124 1.70986 3.46346 -9.19601 -10.3635 -9.30002 -0.255018 -2.09328 -80.6494 -57.3956 93.1957 -28.9468 -29.6305 -11.6019 3.17507 70.0125 0.00334799 2.64595 -0.264037 -13.3963 18.1577 -0.0564634 5.91745 -13.6168 -1.89735 0.72931 
-6.80692 97.0677 3.918 110.86 -85.7899 110.883 -177.559 2.99311 89.3231 -14.294 4.50575 1.47813 65.6256 3.72522 -0.500641 30.9959 0.84705 1.34132 173.025 2.22321 91.2771 -13.8187 -3.44694 0.137383 65.1099 -5.19765 0.0456498 30.9964 -2.93729 0.839409 -0.127097 7.42423 -90.2654 12.0243 -0.377885 -0.48825 0.353373 -0.399011 -0.471156 -22.1812 -0.213688 -0.579248 -2.16858 -0.213679 -0.57925 95.8157 -52.7926 -91.5201 27.801 -9.48386 1.69633 3.53537 -9.5149 -10.0094 -9.04924 -0.253447 -2.02544 -80.7325 -58.114 93.1146 -29.324 -29.3616 -12.9694 3.23548 69.588 0.00399213 2.58717 -0.244555 -13.1387 19.0964 0.363572 6.05704 -15.2576 -1.5869 0.664803 
-6.7879 97.0682 3.75364 110.619 -85.813 110.569 -177.647 3.02417 89.2019 -14.0899 4.50412 1.47331 65.4721 3.8228 -0.345394 30.8375 0.785285 1.22468 172.955 2.42811 91.1477 -13.9469 -3.53181 0.196008 65.1147 -5.17736 0.0411418 30.9313 -2.85031 0.980394 -0.138934 7.37004 -90.2658 12.1327 -0.401812 -0.485954 0.461699 -0.422813 -0.46781 -22.0729 -0.237195 -0.58425 -2.06028 -0.237192 -0.584249 95.8722 -52.6596 -91.4509 27.4079 -9.85709 -0.629493 3.67292 -9.90162 -9.65822 -9.69527 -0.287298 -1.81912 -81.1623 -58.76 92.5543 -31.4103 -29.3022 -17.833 4.79605 71.5401 0.00535973 1.76452 -0.135908 -12.9279 18.6148 0.358918 6.11079 -15.0928 -1.60111 0.839342 
-6.85575 97.0687 3.63243 113.027 -85.9193 113.091 -177.623 3.03944 89.3159 -14.1622 4.26325 1.54916 65.4725 3.76191 -0.349304 30.7389 0.753655 0.995443 172.998 2.39653 91.2887 -13.9915 -3.60895 0.22215 65.148 -5.16821 0.170101 30.7876 -2.66296 0.942429 -0.160187 7.3193 -90.268 12.234 -0.445288 -0.485169 0.563073 -0.466217 -0.465107 -21.9716 -0.278903 -0.59657 -1.959 -0.278892 -0.596565 95.4915 -53.0018 -91.9798 25.8756 -10.8187 -4.84385 4.02186 -8.33639 -9.38409 -9.73599 -0.331345 -1.26855 -81.6475 -58.8637 91.8945 -35.1383 -28.8505 -24.6558 7.14338 74.9226 0.00790243 1.85855 -0.061473 -11.8691 17.6777 0.260283 6.09539 -14.3485 -1.63569 0.850256 
